<svg width="50" height="50" viewBox="0 0 50 50" fill="none" xmlns="http://www.w3.org/2000/svg">
<path d="M36.8181 21.9293C36.8181 31.1212 24.9999 39 24.9999 39C24.9999 39 13.1818 31.1212 13.1818 21.9293C13.1818 18.7949 14.4269 15.7889 16.6432 13.5725C18.8596 11.3562 21.8656 10.1111 24.9999 10.1111C28.1343 10.1111 31.1403 11.3562 33.3567 13.5725C35.573 15.7889 36.8181 18.7949 36.8181 21.9293Z" stroke="#6A3B0D" stroke-width="3" stroke-linecap="round" stroke-linejoin="round"/>
<path d="M24.9998 25.8688C27.1755 25.8688 28.9392 24.1051 28.9392 21.9294C28.9392 19.7537 27.1755 17.99 24.9998 17.99C22.8242 17.99 21.0604 19.7537 21.0604 21.9294C21.0604 24.1051 22.8242 25.8688 24.9998 25.8688Z" stroke="#6A3B0D" stroke-width="3" stroke-linecap="round" stroke-linejoin="round"/>
</svg>
