<svg width="50" height="50" viewBox="0 0 50 50" fill="none" xmlns="http://www.w3.org/2000/svg">
<path d="M25 28.6429C27.0119 28.6429 28.6429 27.0119 28.6429 25C28.6429 22.9881 27.0119 21.3572 25 21.3572C22.9881 21.3572 21.3572 22.9881 21.3572 25C21.3572 27.0119 22.9881 28.6429 25 28.6429Z" fill="white"/>
<path d="M38.3572 28.6429C40.3691 28.6429 42.0001 27.0119 42.0001 25C42.0001 22.9881 40.3691 21.3572 38.3572 21.3572C36.3453 21.3572 34.7144 22.9881 34.7144 25C34.7144 27.0119 36.3453 28.6429 38.3572 28.6429Z" fill="white"/>
<path d="M11.6429 28.6429C13.6548 28.6429 15.2857 27.0119 15.2857 25C15.2857 22.9881 13.6548 21.3572 11.6429 21.3572C9.63097 21.3572 8 22.9881 8 25C8 27.0119 9.63097 28.6429 11.6429 28.6429Z" fill="white"/>
</svg>
