<svg width="50" height="50" viewBox="0 0 50 50" fill="none" xmlns="http://www.w3.org/2000/svg">
<rect x="3" y="3" width="44" height="44" rx="7" fill="white"/>
<path d="M33.4403 17.1359H36.9763C37.3992 17.1359 37.6835 16.8559 37.6835 16.4359V11.8862C37.6835 11.4875 37.3762 11.2144 36.9763 11.1862C35.7574 11.1002 33.7283 11.186 32.016 11.186C27.3112 11.186 24.2468 13.986 24.2468 19.0745V24.1204H20.0036C19.5807 24.1204 19.2964 24.4613 19.2964 24.8813V30.2909C19.2964 30.7109 19.5807 30.9681 20.0036 30.9681H24.2468V45.4241C24.2468 45.8441 24.59 46.185 25.0129 46.185H30.3757C30.7986 46.185 31.1418 45.8441 31.1418 45.4241V30.9681H36.6748C37.0655 30.9681 37.3934 30.6767 37.4363 30.2909L38.0323 24.965C38.0829 24.5146 37.7274 24.1204 37.2708 24.1204H31.1418V19.5858C31.1418 18.3251 32.1709 17.1359 33.4403 17.1359Z" fill="#A6CE39"/>
<path d="M24.2456 45.3704H31.1398V47H24.2456V45.3704Z" fill="#A6CE39"/>
</svg>
