<svg id="Layer_1" data-name="Layer 1" xmlns="http://www.w3.org/2000/svg" viewBox="0 0 16 16"><path d="M3.22,9.53a4.55,4.55,0,1,1,3.52,5.38A4.54,4.54,0,0,1,3.22,9.53Z" fill="#a5cd39" fill-rule="evenodd"/><path d="M6.32,8.45a.23.23,0,0,1,.26-.18.24.24,0,0,1,.17.27.22.22,0,0,1-.26.17A.22.22,0,0,1,6.32,8.45Z" fill="#71624e" fill-rule="evenodd"/><path d="M9.43,9.09a.22.22,0,1,1,.43.1.22.22,0,0,1-.26.17A.23.23,0,0,1,9.43,9.09Z" fill="#71624e" fill-rule="evenodd"/><path d="M6.59,8.55a1.7,1.7,0,0,0,0,.19A1.34,1.34,0,0,0,7.81,10a1.35,1.35,0,0,0,1.77-.86l.12,0a1.09,1.09,0,0,1-.08.2,1.55,1.55,0,0,1-1.84.75A1.48,1.48,0,0,1,6.44,8.74a1,1,0,0,1,0-.21Z" fill="#fff"/><rect x="8.09" y="4.31" width="1.28" height="3.68" transform="translate(0.54 12.99) rotate(-75)" fill="#fff"/><path d="M10.46,6.79,7,6a14.67,14.67,0,0,0,.44-4.9,9.42,9.42,0,0,1,5,1.14S11.53,3.25,10.46,6.79Z" fill="#603813"/><path d="M5.74,4.9s.5,1.19,2.82,1.75a5,5,0,0,0,3.52-.14S12,8.05,8.46,7.2,5.74,4.9,5.74,4.9Z" fill="#603813"/></svg>