<svg xmlns="http://www.w3.org/2000/svg" xmlns:xlink="http://www.w3.org/1999/xlink" width="50" height="50" viewBox="0 0 50 50">
  <defs>
    <clipPath id="clip-cart">
      <rect width="50" height="50"/>
    </clipPath>
  </defs>
  <g id="cart" clip-path="url(#clip-cart)">
    <rect width="50" height="50" fill="rgba(255,255,255,0)"/>
    <g id="cart4" transform="translate(8 4.5)">
      <path id="Path_33" data-name="Path 33" d="M0,5.6A1.1,1.1,0,0,1,1.1,4.5H4.4a1.1,1.1,0,0,1,1.067.834L6.359,8.9H31.9a1.1,1.1,0,0,1,1.067,1.366l-3.3,13.2A1.1,1.1,0,0,1,28.6,24.3H8.8a1.1,1.1,0,0,1-1.067-.834L3.543,6.7H1.1A1.1,1.1,0,0,1,0,5.6Zm6.908,5.5,1.1,4.4H11V11.1Zm6.292,0v4.4h4.4V11.1Zm6.6,0v4.4h4.4V11.1Zm6.6,0v4.4h2.992l1.1-4.4Zm2.443,6.6H26.4v4.4h1.343Zm-4.643,0H19.8v4.4h4.4Zm-6.6,0H13.2v4.4h4.4Zm-6.6,0H8.558l1.1,4.4H11Zm0,11a2.2,2.2,0,1,0,2.2,2.2A2.2,2.2,0,0,0,11,28.7ZM6.6,30.9A4.4,4.4,0,1,1,11,35.3,4.4,4.4,0,0,1,6.6,30.9Zm19.8-2.2a2.2,2.2,0,1,0,2.2,2.2A2.2,2.2,0,0,0,26.4,28.7ZM22,30.9a4.4,4.4,0,1,1,4.4,4.4A4.4,4.4,0,0,1,22,30.9Z" fill="#82a903" fill-rule="evenodd"/>
    </g>
    <g id="cart4-2" data-name="cart4" transform="translate(8.5 5.1)">
      <path id="Path_33-2" data-name="Path 33" d="M0,5.6A1.1,1.1,0,0,1,1.1,4.5H4.4a1.1,1.1,0,0,1,1.067.834L6.359,8.9H31.9a1.1,1.1,0,0,1,1.067,1.366l-3.3,13.2A1.1,1.1,0,0,1,28.6,24.3H8.8a1.1,1.1,0,0,1-1.067-.834L3.543,6.7H1.1A1.1,1.1,0,0,1,0,5.6Zm6.908,5.5,1.1,4.4H11V11.1Zm6.292,0v4.4h4.4V11.1Zm6.6,0v4.4h4.4V11.1Zm6.6,0v4.4h2.992l1.1-4.4Zm2.443,6.6H26.4v4.4h1.343Zm-4.643,0H19.8v4.4h4.4Zm-6.6,0H13.2v4.4h4.4Zm-6.6,0H8.558l1.1,4.4H11Zm0,11a2.2,2.2,0,1,0,2.2,2.2A2.2,2.2,0,0,0,11,28.7ZM6.6,30.9A4.4,4.4,0,1,1,11,35.3,4.4,4.4,0,0,1,6.6,30.9Zm19.8-2.2a2.2,2.2,0,1,0,2.2,2.2A2.2,2.2,0,0,0,26.4,28.7ZM22,30.9a4.4,4.4,0,1,1,4.4,4.4A4.4,4.4,0,0,1,22,30.9Z" fill="#82a903" fill-rule="evenodd"/>
    </g>
  </g>
</svg>
