<svg width="120" height="120" viewBox="0 0 120 120" fill="none" xmlns="http://www.w3.org/2000/svg">
<path d="M60 10C32.385 10 10 32.385 10 60C10 87.615 32.385 110 60 110C87.615 110 110 87.615 110 60C110 32.385 87.615 10 60 10ZM60 20C82.09 20 100 37.91 100 60C100 82.09 82.09 100 60 100C37.91 100 20 82.09 20 60C20 37.91 37.91 20 60 20Z" fill="#ACACAC"/>
<path d="M60.1737 38C50.5896 38 45.1546 43.3242 45 51.0311V51.4167H53.4609V51.0311C53.6464 47.6271 56.0215 45.4308 59.6111 45.4308C63.1699 45.4308 65.5424 47.4709 65.5424 50.3498C65.5424 53.2286 64.3248 54.715 60.2983 57.0993C55.9895 59.6063 54.2706 62.3925 54.6766 67.3452L54.7256 68.6667H63.0128V67.4089C63.0128 64.438 64.169 62.9182 68.3212 60.5358C72.7227 57.9656 75 54.7168 75 50.0728C75 42.9217 69.1024 38 60.1737 38Z" fill="#ACACAC"/>
<rect x="55" y="74" width="8" height="8" fill="#ACACAC"/>
</svg>
