<svg width="150" height="150" viewBox="0 0 150 150" fill="none" xmlns="http://www.w3.org/2000/svg">
<path d="M75 12.5C40.5562 12.5 12.5 40.5562 12.5 75C12.5 109.444 40.5562 137.5 75 137.5C109.444 137.5 137.5 109.444 137.5 75C137.5 40.5562 109.444 12.5 75 12.5ZM75 25C102.688 25 125 47.3117 125 75C125 102.688 102.688 125 75 125C47.3117 125 25 102.688 25 75C25 47.3117 47.3117 25 75 25Z" fill="#ACACAC"/>
<path d="M54.7385 47.1433C54.0906 47.1433 53.4419 47.3901 52.9481 47.8852L47.8833 52.95C46.8931 53.9402 46.8931 55.5434 47.8833 56.531L66.352 74.9997L47.8833 93.4685C46.8931 94.4586 46.8931 96.0618 47.8833 97.0494L52.9481 102.114C53.9382 103.104 55.5414 103.104 56.529 102.114L74.9978 83.6455L93.4665 102.114C94.4541 103.104 96.0598 103.104 97.0475 102.114L102.112 97.0494C103.102 96.0593 103.102 94.4561 102.112 93.4685L83.6436 74.9997L102.112 56.531C103.102 55.5433 103.102 53.9376 102.112 52.95L97.0475 47.8852C96.0573 46.895 94.4541 46.895 93.4665 47.8852L74.9978 66.3539L56.529 47.8852C56.0339 47.3901 55.3865 47.1433 54.7385 47.1433Z" fill="#ACACAC"/>
</svg>
