<svg width="150" height="150" viewBox="0 0 150 150" fill="none" xmlns="http://www.w3.org/2000/svg">
<path d="M75 12.5C40.5562 12.5 12.5 40.5562 12.5 75C12.5 109.444 40.5562 137.5 75 137.5C109.444 137.5 137.5 109.444 137.5 75C137.5 40.5562 109.444 12.5 75 12.5ZM75 25C102.688 25 125 47.3117 125 75C125 102.688 102.688 125 75 125C47.3117 125 25 102.688 25 75C25 47.3117 47.3117 25 75 25ZM101.831 51.8311L62.5 91.1621L48.1689 76.8311L39.3311 85.6689L62.5 108.838L110.669 60.6689L101.831 51.8311Z" fill="#82A90E"/>
</svg>
