<svg width="106" height="90" viewBox="0 0 106 90" fill="none" xmlns="http://www.w3.org/2000/svg">
<path d="M4.46316 0C2.00494 0 0 2.02149 0 4.5C0 6.97851 2.00494 9 4.46316 9H14.3658L26.0816 56.25C27.0753 60.2578 30.6319 63 34.729 63H85.9158C89.9431 63 93.3602 60.3106 94.4237 56.3906L106 13.5H31.2421L33.4737 22.5H94.4237L85.9158 54H34.729L23.0132 6.75C22.0194 2.74219 18.4628 0 14.3658 0H4.46316ZM80.3368 63C72.997 63 66.9474 69.0996 66.9474 76.5C66.9474 83.9004 72.997 90 80.3368 90C87.6766 90 93.7263 83.9004 93.7263 76.5C93.7263 69.0996 87.6766 63 80.3368 63ZM40.1684 63C32.8286 63 26.7789 69.0996 26.7789 76.5C26.7789 83.9004 32.8286 90 40.1684 90C47.5082 90 53.5579 83.9004 53.5579 76.5C53.5579 69.0996 47.5082 63 40.1684 63ZM40.1684 72C42.6789 72 44.6316 73.9688 44.6316 76.5C44.6316 79.0312 42.6789 81 40.1684 81C37.6579 81 35.7053 79.0312 35.7053 76.5C35.7053 73.9688 37.6579 72 40.1684 72ZM80.3368 72C82.8474 72 84.8 73.9688 84.8 76.5C84.8 79.0312 82.8474 81 80.3368 81C77.8263 81 75.8737 79.0312 75.8737 76.5C75.8737 73.9688 77.8263 72 80.3368 72Z" fill="#82A90E"/>
</svg>
